<svg width="147" height="28" viewBox="0 0 147 28" fill="none" xmlns="http://www.w3.org/2000/svg">
<g id="Social">
<g id="1">
<path id="BG" d="M27.634 14C27.634 21.4619 21.6637 27.5 14.3125 27.5C6.96129 27.5 0.991028 21.4619 0.991028 14C0.991028 6.53809 6.96129 0.5 14.3125 0.5C21.6637 0.5 27.634 6.53809 27.634 14Z" stroke="#D4D4D8"/>
<g id="logo-twitter 2">
<g id="Group">
<path id="Vector" d="M20.4375 10.9831C20.0238 11.1693 19.5872 11.2857 19.1275 11.3556C19.5872 11.0762 19.9549 10.6339 20.1158 10.0985C19.6791 10.3546 19.1965 10.5408 18.6679 10.6572C18.2542 10.2149 17.6567 9.93555 17.0132 9.93555C15.7721 9.93555 14.7609 10.9598 14.7609 12.2169C14.7609 12.4031 14.7839 12.5661 14.8299 12.729C12.9683 12.6359 11.2906 11.728 10.1645 10.3313C9.98062 10.6805 9.86571 11.0529 9.86571 11.472C9.86571 12.2634 10.2564 12.9618 10.8769 13.3808C10.5092 13.3576 10.1645 13.2644 9.84273 13.1015V13.1248C9.84273 14.2422 10.6241 15.1733 11.6583 15.3828C11.4745 15.4294 11.2676 15.4527 11.0608 15.4527C10.9229 15.4527 10.762 15.4294 10.6241 15.4061C10.9229 16.314 11.7503 16.9891 12.7385 16.9891C11.9571 17.5943 10.9918 17.9668 9.93466 17.9668C9.7508 17.9668 9.56694 17.9668 9.40607 17.9435C10.4173 18.5953 11.5894 18.9678 12.8764 18.9678C17.0362 18.9678 19.3114 15.476 19.3114 12.4497C19.3114 12.3566 19.3114 12.2402 19.3114 12.1471C19.7481 11.8444 20.1388 11.4487 20.4375 10.9831Z" fill="white"/>
</g>
</g>
</g>
<g id="2">
<ellipse id="BG_2" cx="53.8079" cy="14" rx="13.8215" ry="14" fill="#B1464A"/>
<g id="logo-fb-simple 2">
<g id="Group_2">
<path id="Vector_2" d="M52.5298 20.3038V14.7503H50.6848V12.5859H52.5298V10.9898C52.5298 9.13752 53.6467 8.12891 55.278 8.12891C56.0594 8.12891 56.731 8.18784 56.9267 8.21417V10.1499L55.7953 10.1505C54.9081 10.1505 54.7363 10.5775 54.7363 11.2041V12.5859H56.8522L56.5767 14.7503H54.7363V20.3038H52.5298Z" fill="white"/>
</g>
</g>
</g>
<g id="3">
<path id="BG_3" d="M106.617 14C106.617 21.4619 100.647 27.5 93.2959 27.5C85.9447 27.5 79.9744 21.4619 79.9744 14C79.9744 6.53809 85.9447 0.5 93.2959 0.5C100.647 0.5 106.617 6.53809 106.617 14Z" stroke="#D4D4D8"/>
<g id="logo-instagram 1">
<g id="Group_3">
<path id="Vector_3" d="M93.3001 8.44721C95.0858 8.44721 95.2972 8.45398 96.0026 8.48656C96.4268 8.49182 96.8469 8.5707 97.2447 8.71979C97.5331 8.83248 97.7951 9.00511 98.0138 9.22656C98.2324 9.44802 98.4028 9.71339 98.5141 10.0056C98.6613 10.4085 98.7391 10.8341 98.7443 11.2637C98.7762 11.9782 98.7832 12.1924 98.7832 14.0011C98.7832 15.8098 98.7765 16.024 98.7443 16.7385C98.7391 17.1681 98.6613 17.5936 98.5141 17.9966C98.4028 18.2888 98.2324 18.5541 98.0138 18.7756C97.7951 18.997 97.5331 19.1697 97.2447 19.2824C96.8469 19.4315 96.4268 19.5103 96.0026 19.5156C95.2976 19.5479 95.0861 19.5549 93.3001 19.5549C91.5142 19.5549 91.3027 19.5482 90.5976 19.5156C90.1735 19.5103 89.7534 19.4315 89.3556 19.2824C89.0671 19.1697 88.8051 18.997 88.5865 18.7756C88.3679 18.5541 88.1974 18.2888 88.0862 17.9966C87.939 17.5936 87.8611 17.1681 87.8559 16.7385C87.8241 16.024 87.8171 15.8098 87.8171 14.0011C87.8171 12.1924 87.8238 11.9782 87.8559 11.2637C87.8611 10.8341 87.939 10.4085 88.0862 10.0056C88.1974 9.71339 88.3679 9.44802 88.5865 9.22656C88.8051 9.00511 89.0671 8.83248 89.3556 8.71979C89.7534 8.5707 90.1735 8.49182 90.5976 8.48656C91.303 8.4543 91.5145 8.44721 93.3001 8.44721ZM93.3001 7.22656C91.4849 7.22656 91.2562 7.2343 90.5428 7.26721C89.9878 7.27839 89.4386 7.38485 88.9186 7.58205C88.4726 7.75226 88.0687 8.019 87.7349 8.36366C87.3943 8.70184 87.1308 9.11127 86.9626 9.56334C86.7679 10.09 86.6628 10.6463 86.6518 11.2085C86.6199 11.9304 86.6123 12.162 86.6123 14.0008C86.6123 15.8395 86.6199 16.0711 86.6524 16.7937C86.6635 17.3559 86.7686 17.9122 86.9633 18.4388C87.1312 18.8908 87.3946 19.3002 87.7349 19.6385C88.0688 19.9832 88.473 20.25 88.9193 20.4201C89.4392 20.6173 89.9884 20.7238 90.5435 20.7349C91.2568 20.7672 91.4845 20.7756 93.3008 20.7756C95.117 20.7756 95.3447 20.7679 96.0581 20.7349C96.6131 20.7238 97.1623 20.6173 97.6822 20.4201C98.1264 20.2457 98.5297 19.9794 98.8664 19.6381C99.2031 19.2968 99.4658 18.8882 99.6376 18.4382C99.8323 17.9115 99.9374 17.3553 99.9484 16.793C99.9803 16.0711 99.9879 15.8395 99.9879 14.0008C99.9879 12.162 99.9803 11.9304 99.9478 11.2079C99.9368 10.6456 99.8317 10.0893 99.637 9.56269C99.469 9.11068 99.2057 8.70126 98.8653 8.36301C98.5314 8.01828 98.1272 7.75153 97.681 7.5814C97.161 7.3842 96.6118 7.27775 96.0568 7.26656C95.344 7.2343 95.1154 7.22656 93.3001 7.22656Z" fill="white"/>
<path id="Vector_4" d="M93.3002 10.5234C92.6209 10.5234 91.957 10.7275 91.3922 11.1097C90.8274 11.492 90.3872 12.0353 90.1273 12.6709C89.8673 13.3066 89.7993 14.006 89.9318 14.6808C90.0644 15.3556 90.3914 15.9755 90.8717 16.462C91.352 16.9485 91.964 17.2798 92.6302 17.414C93.2964 17.5482 93.9869 17.4794 94.6145 17.2161C95.242 16.9528 95.7784 16.5069 96.1558 15.9348C96.5331 15.3627 96.7346 14.6902 96.7346 14.0021C96.7346 13.0795 96.3727 12.1947 95.7287 11.5423C95.0846 10.8899 94.211 10.5234 93.3002 10.5234ZM93.3002 16.2602C92.8593 16.2602 92.4283 16.1278 92.0617 15.8797C91.6951 15.6315 91.4093 15.2789 91.2406 14.8663C91.0719 14.4537 91.0277 13.9996 91.1138 13.5616C91.1998 13.1236 91.4121 12.7213 91.7239 12.4055C92.0356 12.0897 92.4329 11.8746 92.8653 11.7875C93.2977 11.7003 93.746 11.7451 94.1533 11.916C94.5607 12.0869 94.9088 12.3763 95.1538 12.7476C95.3987 13.119 95.5295 13.5555 95.5295 14.0021C95.5295 14.601 95.2946 15.1754 94.8765 15.5988C94.4585 16.0223 93.8914 16.2602 93.3002 16.2602Z" fill="white"/>
<path id="Vector_5" d="M96.8722 11.1981C97.3154 11.1981 97.6747 10.8341 97.6747 10.3852C97.6747 9.93621 97.3154 9.57227 96.8722 9.57227C96.429 9.57227 96.0697 9.93621 96.0697 10.3852C96.0697 10.8341 96.429 11.1981 96.8722 11.1981Z" fill="white"/>
</g>
</g>
</g>
<g id="4">
<path id="BG_4" d="M146.109 14C146.109 21.4619 140.139 27.5 132.787 27.5C125.436 27.5 119.466 21.4619 119.466 14C119.466 6.53809 125.436 0.5 132.787 0.5C140.139 0.5 146.109 6.53809 146.109 14Z" stroke="#D4D4D8"/>
<g id="logo-github 1">
<g id="Group_4">
<path id="Vector_6" fill-rule="evenodd" clip-rule="evenodd" d="M133.386 7.22656C129.84 7.22656 126.988 10.1155 126.988 13.7065C126.988 16.5684 128.828 18.9984 131.36 19.8624C131.68 19.9164 131.786 19.7274 131.786 19.5384C131.786 19.3764 131.786 18.9714 131.786 18.4314C130 18.8364 129.627 17.5674 129.627 17.5674C129.334 16.8114 128.908 16.6224 128.908 16.6224C128.321 16.2174 128.961 16.2174 128.961 16.2174C129.601 16.2714 129.947 16.8924 129.947 16.8924C130.507 17.8914 131.44 17.5944 131.813 17.4324C131.866 17.0004 132.026 16.7304 132.213 16.5684C130.8 16.4064 129.307 15.8394 129.307 13.3555C129.307 12.6535 129.547 12.0595 129.974 11.6275C129.92 11.4655 129.681 10.8175 130.027 9.89952C130.027 9.89952 130.56 9.73752 131.786 10.5745C132.293 10.4395 132.853 10.3585 133.386 10.3585C133.919 10.3585 134.479 10.4395 134.985 10.5745C136.211 9.73752 136.744 9.89952 136.744 9.89952C137.091 10.7905 136.877 11.4385 136.798 11.6275C137.197 12.0865 137.464 12.6535 137.464 13.3555C137.464 15.8394 135.971 16.3794 134.532 16.5414C134.772 16.7304 134.958 17.1354 134.958 17.7294C134.958 18.5934 134.958 19.2954 134.958 19.5114C134.958 19.6734 135.065 19.8894 135.411 19.8354C137.944 18.9984 139.783 16.5684 139.783 13.7065C139.783 10.1155 136.931 7.22656 133.386 7.22656Z" fill="white"/>
</g>
</g>
</g>
</g>
</svg>
